<?xml version="1.0" encoding="utf-8"?>
<!-- Generator: Adobe Illustrator 23.1.1, SVG Export Plug-In . SVG Version: 6.00 Build 0)  -->
<svg version="1.1" id="Layer_1" xmlns="http://www.w3.org/2000/svg" xmlns:xlink="http://www.w3.org/1999/xlink" x="0px" y="0px"
	 viewBox="0 0 914 116" style="enable-background:new 0 0 914 116;" xml:space="preserve">
<style type="text/css">
	.st0{fill:#FFFFFF;}
</style>
<g>
	<path class="st0" d="M59.28,38.6h0.91c2.17,0,3.92,1.73,5.24,5.19C75.45,63.53,80.61,73.8,80.9,74.58v1.58
		c0,1.78-1.17,3.2-3.52,4.28c-0.51,0.12-0.92,0.18-1.23,0.18h-0.76c-2.19,0-3.96-1.79-5.3-5.36C63.2,61.62,59.7,54.76,59.6,54.69
		c-7.72,15.51-11.79,23.57-12.22,24.2c-1.15,1.15-2.34,1.73-3.57,1.73h-0.73c-1.78,0-3.24-1.07-4.39-3.22
		c-0.18-0.62-0.26-1.12-0.26-1.49v-0.64c0-0.78,1-3.04,2.99-6.77l14.12-27.89C56.64,39.27,57.89,38.6,59.28,38.6z"/>
	<path class="st0" d="M106.75,38.6h0.76c1.74,0,3.19,1,4.37,2.99c0.33,0.64,0.5,1.42,0.5,2.31v26.28h26.25
		c3.09,0,4.98,1.49,5.68,4.48v1.41c0,1.62-1.01,3-3.02,4.13c-0.57,0.27-1.09,0.41-1.58,0.41h-33.19c-1.78,0-3.23-1.07-4.37-3.22
		c-0.22-0.57-0.32-1.06-0.32-1.49V43.5c0-2.13,1.25-3.7,3.75-4.72C106.01,38.66,106.4,38.6,106.75,38.6z"/>
	<path class="st0" d="M170.16,38.6h0.76c1.74,0,3.19,1,4.37,2.99c0.33,0.64,0.5,1.42,0.5,2.31v26.28h26.25
		c3.09,0,4.98,1.49,5.68,4.48v1.41c0,1.62-1.01,3-3.02,4.13c-0.57,0.27-1.09,0.41-1.58,0.41h-33.19c-1.78,0-3.23-1.07-4.37-3.22
		c-0.22-0.57-0.32-1.06-0.32-1.49V43.5c0-2.13,1.25-3.7,3.75-4.72C169.42,38.66,169.81,38.6,170.16,38.6z"/>
	<path class="st0" d="M233.57,38.6h32.78c1.8,0,3.28,1.04,4.45,3.13c0.21,0.64,0.32,1.14,0.32,1.49v1.17c0,1.68-1.05,3.09-3.16,4.22
		c-0.68,0.27-1.33,0.41-1.93,0.41H239.2v5.36h20.74c2.64,0,4.41,1.04,5.33,3.13c0.27,0.61,0.41,1.16,0.41,1.67v0.73
		c0,2.13-1.25,3.7-3.75,4.72c-0.41,0.12-0.8,0.18-1.17,0.18H239.2v5.36h26.25c3.09,0,4.98,1.49,5.68,4.48v1.41
		c0,1.62-1.01,3-3.02,4.13c-0.57,0.27-1.09,0.41-1.58,0.41h-33.19c-1.78,0-3.23-1.07-4.37-3.22c-0.21-0.57-0.32-1.06-0.32-1.49V43.5
		c0-2.13,1.25-3.7,3.75-4.72C232.83,38.66,233.22,38.6,233.57,38.6z"/>
	<path class="st0" d="M309.23,38.6h16.79c1.72,0,3.2,1.02,4.45,3.05c0.21,0.76,0.32,1.29,0.32,1.58v1.17c0,1.68-1.05,3.09-3.16,4.22
		c-0.68,0.27-1.33,0.41-1.93,0.41h-14.12c-5.27,0-9.18,2.12-11.72,6.36c-0.66,1.41-1,2.84-1,4.31c0,4.14,2.42,7.33,7.27,9.58
		c1.72,0.61,3.31,0.91,4.78,0.91h9.35v-5.27c0-2.77,1.09-4.62,3.28-5.54c0.57-0.29,1.17-0.44,1.82-0.44h0.44
		c2.29,0,3.93,1.3,4.92,3.9c0.06,0.29,0.09,0.54,0.09,0.73v12.51c0,1.62-1.01,3-3.02,4.13c-0.57,0.27-1.09,0.41-1.58,0.41H308.7
		c-4.59,0-9.1-1.85-13.54-5.54c-2.52-2.56-4.05-4.57-4.6-6.04c-1.5-2.99-2.26-5.86-2.26-8.61v-1.55c0-5,2.09-9.72,6.27-14.15
		C299.07,40.64,303.96,38.6,309.23,38.6z"/>
	<path class="st0" d="M356.64,38.6h25.02c3.57,0,6.87,1.68,9.87,5.04c1.78,2.56,2.67,4.96,2.67,7.21v1.73c0,3.42-1.7,6.62-5.1,9.61
		c-2.07,1.33-3.72,2.1-4.95,2.31v0.06c4.34,3.85,7.19,6.52,8.55,8.03c0.61,1.02,0.91,1.98,0.91,2.9c0,2.21-1.23,3.86-3.69,4.95
		c-0.49,0.12-0.85,0.18-1.08,0.18h-1.17c-1.37,0-3.17-1.21-5.42-3.63c-0.78-0.64-5.21-4.7-13.3-12.16h-6.68v10.75
		c0,2.29-1.32,3.94-3.96,4.95c-0.29,0.06-0.54,0.09-0.73,0.09h-1.17c-1.78,0-3.23-1.07-4.37-3.22c-0.21-0.57-0.32-1.06-0.32-1.49
		V43.5c0-2.13,1.25-3.7,3.75-4.72C355.9,38.66,356.29,38.6,356.64,38.6z M362.27,49.03v5.45h21.39v-5.45H362.27z"/>
	<path class="st0" d="M429.75,38.6h13.1c4.86,0,9.03,1.68,12.51,5.04c1.5,1.91,2.26,3.59,2.26,5.04v21.86c0,2.15-1.37,4.38-4.1,6.68
		c-3.36,2.27-7,3.4-10.93,3.4h-12.28c-4.75,0-8.8-1.45-12.16-4.37c-2.01-2.01-3.02-4.05-3.02-6.12V49.09c0-3.46,2.36-6.41,7.09-8.85
		C424.98,39.15,427.49,38.6,429.75,38.6z M425.33,49v21.21h22.09V49H425.33z"/>
	<path class="st0" d="M516.35,38.6h25.02c3.57,0,6.87,1.68,9.87,5.04c1.78,2.56,2.67,4.96,2.67,7.21v1.73c0,3.4-1.67,6.57-5.01,9.52
		c-2.56,1.82-5.16,2.72-7.79,2.72h-19.13v10.75c0,2.29-1.32,3.94-3.96,4.95c-0.29,0.06-0.54,0.09-0.73,0.09h-1.17
		c-1.78,0-3.23-1.07-4.37-3.22c-0.21-0.57-0.32-1.06-0.32-1.49V43.5c0-2.13,1.25-3.7,3.75-4.72C515.61,38.66,516,38.6,516.35,38.6z
		 M521.97,49.03v5.45h21.39v-5.45H521.97z"/>
	<path class="st0" d="M579.76,38.6h0.76c1.74,0,3.19,1,4.37,2.99c0.33,0.64,0.5,1.42,0.5,2.31v26.28h26.25
		c3.09,0,4.98,1.49,5.68,4.48v1.41c0,1.62-1.01,3-3.02,4.13c-0.57,0.27-1.09,0.41-1.58,0.41h-33.19c-1.78,0-3.23-1.07-4.37-3.22
		c-0.21-0.57-0.32-1.06-0.32-1.49V43.5c0-2.13,1.25-3.7,3.75-4.72C579.02,38.66,579.41,38.6,579.76,38.6z"/>
	<path class="st0" d="M659.11,38.6h0.91c2.17,0,3.92,1.73,5.24,5.19c10.02,19.75,15.18,30.01,15.47,30.79v1.58
		c0,1.78-1.17,3.2-3.52,4.28c-0.51,0.12-0.92,0.18-1.23,0.18h-0.76c-2.19,0-3.96-1.79-5.3-5.36c-6.89-13.63-10.39-20.49-10.49-20.57
		c-7.71,15.51-11.79,23.57-12.22,24.2c-1.15,1.15-2.34,1.73-3.57,1.73h-0.73c-1.78,0-3.24-1.07-4.39-3.22
		c-0.18-0.62-0.26-1.12-0.26-1.49v-0.64c0-0.78,1-3.04,2.99-6.77l14.12-27.89C656.47,39.27,657.72,38.6,659.11,38.6z"/>
	<path class="st0" d="M706.58,38.6h0.76c1.5,0,3.04,0.88,4.6,2.64c9.84,9.69,17.06,16.75,21.65,21.18V44.23
		c0-2.62,1.2-4.41,3.6-5.39c0.53-0.16,1.01-0.23,1.44-0.23h0.73c1.8,0,3.28,1.04,4.45,3.13c0.21,0.64,0.32,1.14,0.32,1.49v32.84
		c0,1.62-1.01,3-3.02,4.13c-0.57,0.27-1.09,0.41-1.58,0.41h-1.17c-1.5,0-3.37-1.3-5.6-3.9l-20.57-20.1v18.96
		c0,2.29-1.32,3.94-3.96,4.95c-0.29,0.06-0.54,0.09-0.73,0.09h-1.17c-1.78,0-3.23-1.07-4.37-3.22c-0.21-0.57-0.32-1.06-0.32-1.49
		V43.5c0-2.13,1.25-3.7,3.75-4.72C705.84,38.66,706.23,38.6,706.58,38.6z"/>
	<path class="st0" d="M769.99,38.6h32.78c1.8,0,3.28,1.04,4.45,3.13c0.21,0.64,0.32,1.14,0.32,1.49v1.17c0,1.68-1.05,3.09-3.16,4.22
		c-0.68,0.27-1.33,0.41-1.93,0.41h-26.84v5.36h20.74c2.64,0,4.41,1.04,5.33,3.13c0.27,0.61,0.41,1.16,0.41,1.67v0.73
		c0,2.13-1.25,3.7-3.75,4.72c-0.41,0.12-0.8,0.18-1.17,0.18h-21.56v5.36h26.25c3.09,0,4.98,1.49,5.68,4.48v1.41
		c0,1.62-1.01,3-3.02,4.13c-0.57,0.27-1.09,0.41-1.58,0.41h-33.19c-1.78,0-3.23-1.07-4.37-3.22c-0.21-0.57-0.32-1.06-0.32-1.49V43.5
		c0-2.13,1.25-3.7,3.75-4.72C769.25,38.66,769.64,38.6,769.99,38.6z"/>
	<path class="st0" d="M833.4,38.6h32.78c1.8,0,3.28,1.04,4.45,3.13c0.21,0.64,0.32,1.14,0.32,1.49v1.17c0,1.68-1.05,3.09-3.16,4.22
		c-0.68,0.27-1.33,0.41-1.93,0.41h-10.87v26.69c0,2.17-1.28,3.77-3.84,4.8l-0.85,0.09h-1.17c-1.7,0-3.12-1.04-4.28-3.13
		c-0.27-0.68-0.41-1.32-0.41-1.9V49.03h-10.61c-2.48,0-4.21-1.24-5.19-3.72c-0.12-0.51-0.18-0.87-0.18-1.08V43.5
		c0-2.13,1.25-3.7,3.75-4.72C832.66,38.66,833.05,38.6,833.4,38.6z"/>
</g>
</svg>
